<svg width="162" height="432" viewBox="0 0 162 432" fill="none" xmlns="http://www.w3.org/2000/svg">
<g filter="url(#filter0_d_9_4)">
<mask id="mask0_9_4" style="mask-type:alpha" maskUnits="userSpaceOnUse" x="4" y="0" width="154" height="432">
<rect x="4" width="154" height="432" fill="#C4C4C4"/>
</mask>
<g mask="url(#mask0_9_4)">
<path fill-rule="evenodd" clip-rule="evenodd" d="M181.5 400C279.531 400 359 320.531 359 222.5C359 124.469 279.531 45 181.5 45C83.4695 45 4 124.469 4 222.5C4 320.531 83.4695 400 181.5 400Z" fill="url(#paint0_linear_9_4)"/>
<path fill-rule="evenodd" clip-rule="evenodd" d="M65.5 168C99.4655 168 127 140.466 127 106.5C127 72.5345 99.4655 45 65.5 45C31.5345 45 4 72.5345 4 106.5C4 140.466 31.5345 168 65.5 168Z" fill="url(#paint1_linear_9_4)"/>
</g>
</g>
<defs>
<filter id="filter0_d_9_4" x="0" y="45" width="162" height="363" filterUnits="userSpaceOnUse" color-interpolation-filters="sRGB">
<feFlood flood-opacity="0" result="BackgroundImageFix"/>
<feColorMatrix in="SourceAlpha" type="matrix" values="0 0 0 0 0 0 0 0 0 0 0 0 0 0 0 0 0 0 127 0" result="hardAlpha"/>
<feOffset dy="4"/>
<feGaussianBlur stdDeviation="2"/>
<feComposite in2="hardAlpha" operator="out"/>
<feColorMatrix type="matrix" values="0 0 0 0 0 0 0 0 0 0 0 0 0 0 0 0 0 0 0.25 0"/>
<feBlend mode="normal" in2="BackgroundImageFix" result="effect1_dropShadow_9_4"/>
<feBlend mode="normal" in="SourceGraphic" in2="effect1_dropShadow_9_4" result="shape"/>
</filter>
<linearGradient id="paint0_linear_9_4" x1="204.172" y1="483.922" x2="444.821" y2="235.657" gradientUnits="userSpaceOnUse">
<stop stop-color="#CD10FF"/>
<stop offset="1" stop-color="#9F06FF"/>
</linearGradient>
<linearGradient id="paint1_linear_9_4" x1="67.658" y1="194.499" x2="130.315" y2="107.342" gradientUnits="userSpaceOnUse">
<stop stop-color="#FFD7A9"/>
<stop offset="1" stop-color="#FFAE70"/>
</linearGradient>
</defs>
</svg>
